<?xml version="1.0" standalone="no"?>
<!DOCTYPE svg PUBLIC "-//W3C//DTD SVG 20010904//EN"
 "http://www.w3.org/TR/2001/REC-SVG-20010904/DTD/svg10.dtd">
<svg version="1.0" xmlns="http://www.w3.org/2000/svg"
 width="900.000000pt" height="588.000000pt" viewBox="0 0 900.000000 588.000000"
 preserveAspectRatio="xMidYMid meet">
<metadata>
Created by potrace 1.10, written by Peter Selinger 2001-2011
</metadata>
<g transform="translate(0.000000,588.000000) scale(0.100000,-0.100000)"
fill="#d15e00" stroke="none">
<path d="M1708 3570 c-45 -32 -67 -40 -101 -40 -37 0 -48 -5 -85 -43 -37 -38
-42 -48 -42 -90 0 -38 -7 -57 -40 -104 -22 -32 -40 -65 -40 -73 0 -9 18 -42
40 -75 30 -45 40 -70 40 -101 0 -33 7 -50 38 -84 34 -38 43 -42 98 -49 50 -6
69 -14 99 -40 59 -51 81 -58 108 -34 12 11 32 24 45 28 20 6 22 3 22 -35 0
-26 -9 -54 -25 -80 -14 -22 -38 -65 -53 -97 -16 -32 -43 -84 -61 -117 -21 -38
-31 -72 -31 -100 0 -36 6 -47 43 -83 23 -22 51 -44 63 -47 12 -4 115 -7 230
-8 229 -2 223 -3 310 63 51 39 114 53 129 29 11 -18 118 -67 162 -75 33 -5 44
-3 49 8 3 8 24 23 47 33 55 24 99 60 131 106 23 34 24 42 17 112 -7 74 -7 75
-56 118 -26 24 -69 53 -94 66 -51 26 -101 69 -101 88 0 18 39 101 70 151 16
24 31 67 35 95 7 49 6 51 -36 94 -24 24 -57 48 -73 53 -17 5 -89 8 -161 7 -71
-1 -168 2 -214 8 -79 9 -86 11 -127 51 -38 36 -44 47 -44 82 0 29 -8 52 -30
81 -36 50 -50 58 -118 65 -40 5 -63 14 -96 42 -24 19 -54 35 -67 35 -13 0 -50
-18 -81 -40z m112 -24 c8 -10 9 -33 5 -70 l-7 -56 31 -6 c17 -4 31 -10 31 -15
0 -5 9 -9 19 -9 12 0 33 18 52 45 18 25 35 45 38 45 4 0 17 -7 29 -16 29 -20
28 -48 -3 -68 -13 -9 -33 -25 -43 -37 -19 -20 -19 -21 -1 -60 l19 -39 64 0
c56 0 64 -2 69 -21 11 -41 -1 -49 -69 -49 l-65 0 -19 -42 -19 -43 38 -35 c43
-40 54 -63 38 -79 -21 -21 -52 -11 -80 24 -30 38 -55 43 -97 22 -23 -12 -25
-19 -25 -77 l0 -65 -35 0 -35 0 2 62 c3 57 1 64 -22 79 -36 24 -73 21 -93 -7
-31 -45 -49 -57 -76 -52 -40 8 -34 42 16 84 l41 36 -13 47 -13 46 -68 0 c-73
0 -84 7 -75 46 6 23 11 24 76 24 68 0 70 1 76 28 4 15 11 32 16 38 6 8 -7 25
-37 52 -56 49 -59 80 -9 96 16 5 27 -3 53 -39 19 -27 40 -45 52 -45 10 0 19 4
19 9 0 5 14 11 31 15 l30 6 -6 55 c-5 38 -4 60 5 70 16 19 44 19 60 1z m875
-395 c4 -13 -6 -36 -30 -70 -19 -28 -35 -54 -35 -58 -1 -5 -9 -18 -19 -30 -17
-21 -25 -22 -80 -17 -34 4 -61 10 -61 13 0 3 16 41 37 84 l38 77 45 1 c25 0
54 4 65 9 30 13 33 12 40 -9z m-371 -6 c3 -8 -7 -34 -23 -57 -16 -24 -31 -53
-35 -65 -10 -32 -25 -40 -89 -47 -48 -5 -59 -4 -64 10 -3 10 1 29 10 43 9 14
26 47 39 73 l23 47 60 4 c33 2 63 4 66 5 4 1 9 -5 13 -13z m170 -3 c3 -5 -5
-24 -16 -43 -12 -19 -31 -52 -43 -74 -20 -38 -24 -40 -73 -43 -58 -3 -76 14
-51 46 15 18 43 74 53 105 4 14 17 17 65 17 33 0 62 -4 65 -8z m-286 -217 c4
-3 1 -14 -6 -23 -7 -9 -16 -26 -22 -37 -25 -54 -45 -67 -108 -71 -52 -4 -62
-2 -62 12 0 18 50 115 65 126 11 8 124 2 133 -7z m360 -12 c2 -13 -1 -23 -7
-23 -5 0 -13 -10 -17 -22 -3 -13 -15 -35 -26 -50 -18 -25 -23 -27 -81 -23 -34
2 -63 8 -65 13 -1 5 10 34 26 63 27 50 32 54 73 60 73 11 94 7 97 -18z m-188
12 c0 -3 -10 -22 -22 -43 -13 -21 -28 -47 -34 -57 -8 -15 -24 -21 -63 -23 -48
-3 -51 -2 -51 21 0 14 7 30 15 37 8 7 15 20 15 29 0 30 23 41 82 41 32 0 58
-2 58 -5z m-271 -182 c3 -2 -3 -17 -13 -34 -10 -16 -24 -42 -32 -57 -11 -23
-23 -28 -79 -37 -36 -6 -68 -9 -70 -6 -8 7 -6 51 3 51 4 0 20 23 35 50 l29 51
61 -7 c34 -4 64 -8 66 -11z m369 -2 c2 -7 0 -16 -5 -20 -5 -3 -22 -27 -37 -53
-15 -27 -35 -48 -44 -49 -101 -7 -138 6 -110 38 9 10 18 27 22 39 14 45 39 59
106 59 45 0 65 -4 68 -14z m-205 3 c8 -9 -43 -107 -62 -118 -23 -14 -103 -14
-108 0 -2 7 6 29 20 51 13 21 26 46 30 56 5 13 18 17 60 17 30 0 56 -3 60 -6z
m429 -63 c-4 -41 10 -52 60 -44 75 11 110 -14 69 -51 -16 -14 -30 -16 -75 -11
-48 6 -57 5 -63 -10 -10 -28 20 -43 74 -38 54 5 90 -13 80 -41 -5 -13 -21 -16
-77 -16 l-72 0 2 -27 c3 -47 1 -53 -20 -53 -43 0 -140 80 -140 116 0 21 -5 23
-82 26 -95 4 -100 0 -138 -87 l-25 -55 -72 0 c-64 0 -73 2 -73 18 0 10 5 23
11 29 13 13 32 45 53 91 8 18 21 34 28 37 7 2 76 8 153 12 129 7 140 10 143
28 8 43 100 116 142 112 22 -2 25 -6 22 -36z m-719 -111 c31 0 34 -15 10 -50
-10 -14 -28 -47 -40 -75 l-21 -50 -64 -7 c-34 -4 -69 -6 -75 -3 -17 6 -16 30
2 48 8 8 25 35 38 59 48 89 49 90 87 84 19 -3 47 -6 63 -6z m197 -11 c0 -6
-12 -31 -27 -57 -16 -26 -32 -60 -38 -77 -10 -29 -12 -30 -77 -33 -44 -2 -68
1 -68 8 0 9 35 65 50 80 3 3 14 24 25 47 l20 43 58 0 c34 0 57 -4 57 -11z"/>
<path d="M1735 3346 c-62 -28 -97 -101 -75 -157 17 -44 36 -66 73 -84 53 -26
120 -12 159 32 9 10 21 34 28 54 21 59 -14 128 -77 155 -40 17 -69 17 -108 0z"/>
<path d="M3754 3531 c-42 -11 -74 -28 -102 -53 -71 -64 -94 -63 -185 14 -37
32 -54 39 -104 44 -75 8 -118 -5 -179 -56 -83 -69 -106 -171 -63 -286 l22 -57
-22 -44 c-41 -86 -23 -137 91 -250 15 -16 29 -21 45 -17 28 8 29 0 2 -27 -15
-15 -27 -19 -50 -14 -59 13 -98 -49 -106 -166 -7 -93 11 -154 56 -187 25 -18
33 -19 59 -10 24 9 36 9 56 -1 16 -9 36 -11 58 -6 40 9 99 9 154 0 26 -4 44
-3 48 4 9 14 61 14 88 0 14 -8 28 -7 49 1 23 10 36 9 69 -4 46 -18 114 -20
180 -5 25 6 52 10 60 9 102 -7 298 -5 307 2 13 10 53 7 84 -6 10 -4 23 -1 32
8 19 20 40 20 77 1 57 -29 329 -40 440 -17 41 8 87 14 103 13 30 -2 94 -2 160
0 23 1 51 0 61 -2 10 -2 21 2 23 9 3 6 -1 12 -8 12 -17 0 -59 48 -59 67 0 23
-31 62 -44 57 -9 -3 -11 -21 -8 -58 l4 -54 -38 -5 c-45 -5 -67 13 -62 52 3 21
-2 26 -30 32 -22 4 -34 3 -36 -5 -20 -76 -30 -83 -115 -85 -33 -1 -51 5 -68
21 l-23 21 -23 -21 c-13 -12 -34 -22 -46 -22 -26 0 -81 47 -82 70 0 8 -5 4
-10 -10 -6 -13 -17 -33 -26 -42 -20 -22 -71 -24 -79 -3 -4 8 -11 15 -18 15
-15 0 -39 57 -32 76 11 28 50 12 61 -23 12 -44 41 -44 50 -1 8 34 -6 51 -57
70 -26 9 -48 34 -61 70 -3 10 6 32 24 57 24 34 35 41 63 41 36 0 76 -36 76
-69 0 -9 12 3 26 27 23 38 29 42 64 42 30 0 42 -5 51 -21 l11 -21 18 20 c13
13 27 18 41 15 21 -6 21 -9 15 -120 -8 -123 -11 -116 52 -127 28 -5 32 -3 32
17 0 12 7 35 15 51 8 15 15 44 15 63 0 19 6 47 14 61 8 15 17 35 20 45 9 29
40 16 44 -18 2 -17 8 -34 13 -39 5 -6 9 -31 9 -56 0 -44 13 -70 33 -70 6 0 7
32 3 80 -9 105 -1 120 63 120 34 0 51 -5 55 -15 3 -8 12 -15 21 -15 8 0 15 -7
15 -15 0 -9 7 -18 15 -21 24 -10 17 -50 -15 -85 -25 -28 -28 -35 -16 -48 7 -9
16 -24 19 -33 4 -10 11 -18 17 -18 5 0 10 -11 10 -24 0 -26 15 -43 24 -27 4 5
7 61 7 123 l1 114 -36 57 c-20 31 -36 58 -36 61 0 2 20 14 44 26 42 20 47 20
95 6 54 -16 113 -12 146 10 26 19 44 18 98 -6 59 -26 117 -18 162 21 41 36 80
37 125 4 58 -43 99 -50 164 -30 51 16 58 16 95 2 33 -14 50 -15 97 -6 31 6 67
17 78 24 23 15 63 9 127 -18 30 -13 46 -14 90 -6 68 13 93 14 149 1 35 -8 59
-7 103 4 47 12 66 13 94 3 19 -6 58 -9 85 -7 40 4 57 12 85 40 l35 36 -12 58
c-21 96 -18 171 8 197 20 20 23 20 38 5 15 -14 16 -27 15 -133 0 -73 7 -115
23 -140 28 -42 74 -65 134 -65 48 0 56 3 87 38 l35 37 0 138 c0 153 9 186 59
211 44 23 63 61 64 126 0 52 -3 62 -30 89 -41 40 -90 50 -251 51 -130 0 -163
-6 -187 -35 -19 -24 -75 -26 -109 -6 -56 34 -222 53 -279 32 -60 -23 -97 -88
-97 -171 0 -42 -12 -63 -31 -55 -16 6 -59 77 -59 98 0 14 -65 106 -84 119 -6
4 -32 8 -58 8 -43 0 -49 -4 -87 -46 -43 -49 -101 -160 -101 -194 0 -11 -7 -20
-15 -20 -8 0 -15 1 -16 3 0 1 -4 44 -8 95 -7 90 -9 94 -46 132 -58 59 -110 51
-200 -33 -44 -41 -51 -45 -65 -32 -9 8 -22 15 -28 15 -7 0 -17 9 -24 21 -18
28 -80 59 -121 59 -24 0 -48 -11 -81 -37 l-47 -37 -57 32 c-83 45 -239 66
-308 42 -16 -6 -44 -31 -62 -55 l-34 -44 2 -143 c1 -79 2 -150 2 -158 0 -8 -5
-41 -11 -74 -7 -38 -7 -65 -1 -77 6 -10 10 -25 10 -34 0 -9 17 -37 37 -62 40
-48 40 -46 -20 -79 -18 -9 -39 -13 -57 -9 -32 7 -62 -5 -102 -43 l-27 -25 -38
41 c-36 40 -42 42 -116 51 -43 5 -81 12 -84 15 -23 22 75 58 101 37 7 -6 38
-16 69 -22 49 -9 61 -7 96 10 21 11 48 32 60 47 26 33 37 91 22 115 -6 11 -11
28 -11 39 0 10 -6 34 -14 52 -20 46 -41 106 -55 153 -12 41 -15 48 -46 121
-19 45 -97 128 -131 138 -12 4 -33 2 -47 -3 -29 -11 -107 -89 -107 -107 0 -6
-6 -17 -14 -23 -8 -6 -16 -24 -19 -39 -3 -15 -19 -65 -36 -112 -17 -47 -31
-92 -31 -101 0 -9 -8 -26 -17 -38 -16 -19 -23 -21 -57 -14 -41 9 -43 11 -76
83 -17 36 -21 65 -21 149 l0 103 -51 54 c-46 49 -55 54 -94 54 -37 0 -51 -6
-94 -45 -28 -25 -54 -45 -59 -45 -4 0 -29 18 -54 40 -42 38 -87 60 -147 72
-14 3 -53 -2 -86 -11z m1638 -69 c7 -7 22 -12 33 -12 27 0 87 -70 98 -113 16
-62 19 -95 8 -101 -6 -4 -11 -17 -11 -29 0 -13 -14 -38 -31 -57 -30 -33 -31
-34 -15 -61 9 -15 16 -37 16 -48 0 -12 6 -32 14 -44 8 -12 16 -40 18 -62 l3
-40 -64 -3 c-73 -3 -96 10 -106 62 -4 17 -11 47 -17 66 -6 19 -13 41 -15 49
-3 11 -6 12 -16 2 -7 -7 -10 -38 -8 -84 3 -91 -4 -99 -91 -95 l-63 3 -3 279
c-2 210 1 282 10 293 10 13 33 15 120 11 64 -3 113 -9 120 -16z m341 -11 c15
-16 27 -36 27 -44 0 -8 7 -20 15 -27 8 -7 15 -19 15 -27 0 -8 7 -21 15 -29 8
-9 15 -24 15 -35 0 -10 5 -19 10 -19 6 0 10 -7 10 -15 0 -8 7 -15 15 -15 8 0
15 6 15 14 0 14 56 124 71 141 5 5 9 15 9 23 0 8 10 25 23 38 25 27 87 33 106
10 8 -9 11 -95 9 -292 l-3 -279 -67 -3 c-60 -3 -68 -1 -78 19 -15 27 -4 123
16 140 18 15 18 39 -1 39 -8 0 -15 -6 -15 -13 0 -7 -8 -20 -17 -29 -10 -10
-27 -26 -37 -38 -24 -25 -64 -26 -73 -2 -9 24 -45 72 -55 72 -4 0 -5 -43 -1
-95 l6 -96 -69 3 -69 3 -3 279 c-2 197 1 283 9 292 20 25 71 17 102 -15z m704
2 c7 -9 13 -27 13 -39 0 -12 7 -27 15 -34 8 -7 15 -27 15 -45 0 -18 7 -38 15
-45 8 -7 15 -27 15 -44 0 -17 7 -40 15 -50 8 -11 15 -33 15 -49 0 -15 7 -35
15 -43 8 -9 15 -27 15 -42 0 -15 7 -36 15 -46 8 -11 15 -31 15 -44 0 -13 4
-32 10 -42 16 -29 -10 -41 -81 -38 l-63 3 -20 42 c-20 40 -23 42 -66 43 -43 0
-46 -2 -65 -42 l-21 -43 -67 -3 -67 -3 0 43 c0 24 7 56 15 72 8 15 15 38 15
50 0 12 7 31 15 42 8 10 15 31 15 45 0 14 7 34 15 45 8 10 15 33 15 51 0 17 7
38 15 47 8 8 15 28 15 45 0 16 7 36 15 45 8 8 15 25 15 37 0 13 10 34 23 47
18 19 29 23 57 18 19 -3 41 -13 47 -23z m485 9 c6 -6 20 -12 29 -12 24 0 99
-87 99 -116 0 -12 5 -35 12 -49 9 -19 9 -28 0 -37 -7 -7 -12 -24 -12 -38 0
-14 -13 -40 -30 -58 -34 -38 -36 -47 -15 -68 8 -9 15 -28 15 -43 0 -16 7 -34
15 -41 10 -8 15 -30 15 -61 l0 -49 -64 0 c-71 0 -92 12 -102 58 -3 15 -9 35
-15 44 -5 10 -9 31 -9 48 0 27 -3 30 -28 28 -15 -1 -33 1 -40 6 -8 5 -12 -2
-12 -25 0 -27 2 -30 15 -19 21 18 24 12 31 -56 8 -77 -2 -86 -88 -82 l-63 3
-3 279 c-2 208 1 282 10 293 10 12 34 14 120 11 67 -2 112 -8 120 -16z m583
-6 c14 -22 14 -113 0 -136 -5 -8 -23 -11 -54 -7 -26 3 -53 2 -60 -3 -10 -6
-13 -53 -12 -214 l2 -206 -69 0 c-70 0 -70 0 -81 31 -13 38 -14 203 -1 309 4
41 6 77 3 80 -2 3 -29 4 -58 3 -64 -3 -73 6 -76 75 -4 88 0 90 212 90 173 0
181 -1 194 -22z m-4075 -24 c27 -20 68 -87 69 -113 1 -22 -23 -31 -54 -19 -14
5 -31 7 -38 4 -8 -3 -21 6 -31 20 -12 20 -25 26 -52 26 -35 0 -35 0 -32 -42
l3 -42 65 -19 c75 -22 84 -28 118 -82 20 -30 26 -52 25 -90 -1 -59 -16 -90
-67 -138 -42 -40 -80 -52 -128 -42 -66 15 -148 102 -148 158 0 33 6 36 60 30
38 -4 49 -11 68 -39 48 -73 138 -12 97 66 -13 24 -22 30 -49 30 -60 0 -119 39
-150 100 -21 43 -20 77 3 126 23 47 49 72 87 84 42 13 125 3 154 -18z m441 18
c42 -12 82 -51 103 -102 18 -42 23 -289 7 -331 -15 -38 -72 -95 -115 -112 -78
-33 -185 18 -217 102 -12 31 -12 314 0 345 5 13 24 38 42 56 49 48 109 62 180
42z m380 -219 l-4 -213 74 2 c113 4 106 8 105 -57 l-1 -58 -140 0 -140 0 -1
45 c-2 111 -6 486 -5 493 1 4 27 7 59 5 l57 -3 -4 -214z m546 169 c12 -25 22
-54 23 -65 0 -11 7 -33 15 -48 8 -15 17 -43 21 -63 3 -19 10 -36 14 -39 5 -3
11 -23 15 -45 4 -22 11 -42 16 -46 5 -3 9 -14 9 -25 0 -11 8 -39 19 -62 28
-64 33 -104 14 -111 -9 -4 -24 1 -33 9 -12 11 -20 13 -25 6 -14 -23 -37 -9
-56 34 l-20 45 -68 0 -68 0 -13 -40 c-17 -51 -33 -65 -50 -45 -12 14 -15 14
-31 -1 -15 -13 -22 -14 -33 -5 -11 9 -12 21 -4 53 5 23 12 47 17 53 4 5 31 84
60 175 30 91 57 173 62 182 5 10 9 26 9 37 0 41 11 52 49 49 32 -3 39 -8 58
-48z m-1156 -520 c33 -33 67 -60 74 -60 27 0 25 -19 -5 -40 -30 -21 -31 -21
-58 -4 -21 15 -46 19 -117 18 -94 0 -116 9 -87 37 9 9 36 37 60 63 24 25 50
46 58 46 8 0 41 -27 75 -60z m465 -6 c10 -14 30 -32 46 -40 16 -8 26 -19 24
-23 -9 -13 -65 -23 -146 -26 -116 -3 -130 24 -50 99 49 46 50 47 80 31 16 -8
37 -27 46 -41z m408 -15 c28 -22 35 -49 12 -49 -7 0 -25 -9 -40 -21 -66 -52
-119 10 -55 63 40 33 48 34 83 7z m-1304 -164 l0 -65 35 0 34 0 3 63 c3 54 5
62 23 62 19 0 20 -7 20 -105 0 -58 2 -113 3 -123 4 -31 22 -8 22 27 0 19 7 50
15 69 8 20 15 52 15 71 0 25 7 39 22 51 21 14 24 14 36 -2 7 -10 11 -31 8 -48
-3 -18 0 -38 9 -49 8 -11 15 -36 15 -55 0 -20 4 -42 9 -50 16 -25 23 26 16
110 -5 57 -4 84 5 94 17 20 108 21 116 0 3 -8 14 -17 25 -20 16 -5 19 -16 19
-59 0 -35 -5 -58 -15 -66 -17 -14 -20 -46 -6 -54 9 -6 51 -87 51 -99 0 -4 -10
-7 -22 -7 -26 0 -58 27 -59 49 -1 29 -35 76 -55 76 -16 0 -19 -6 -16 -42 4
-53 -12 -85 -41 -81 -14 2 -25 14 -32 34 -14 44 -35 65 -59 62 -11 -2 -23 -13
-26 -25 -7 -31 -47 -73 -69 -73 -24 0 -31 19 -31 86 l0 55 -32 -3 c-33 -3 -33
-3 -38 -68 -4 -58 -7 -65 -27 -68 l-23 -3 0 160 0 161 25 0 c24 0 25 -2 25
-65z m649 48 c8 -15 13 -16 30 -5 12 6 30 12 41 12 18 0 20 -7 20 -61 0 -60 0
-60 28 -57 25 3 27 6 25 43 -4 68 4 87 35 83 l27 -3 -3 -97 c-4 -95 2 -114 26
-85 5 6 12 32 15 57 11 93 21 125 41 125 22 0 46 -62 46 -121 0 -24 6 -47 14
-53 8 -7 18 -26 22 -43 13 -60 22 -5 14 87 -10 120 -4 135 55 135 31 0 47 -5
51 -15 4 -8 11 -15 16 -15 16 0 47 -43 48 -67 0 -12 -11 -35 -25 -51 -23 -27
-24 -33 -13 -59 7 -15 18 -32 25 -36 7 -4 13 -24 13 -42 0 -29 -4 -35 -20 -35
-11 0 -24 8 -27 18 -4 9 -13 23 -20 30 -7 7 -13 22 -13 32 0 23 -28 52 -42 44
-6 -4 -7 -24 -4 -48 9 -56 -7 -75 -56 -69 -28 4 -38 11 -42 28 -3 13 -3 30 0
39 3 9 0 18 -7 21 -22 8 -74 -11 -71 -25 2 -8 1 -24 -3 -37 -5 -20 -12 -23
-50 -23 -49 0 -47 -3 -49 80 -1 41 -3 45 -26 45 -23 0 -25 -4 -28 -58 -3 -66
-20 -81 -54 -51 -20 19 -21 19 -35 -3 -21 -31 -74 -31 -107 1 -25 22 -26 28
-26 136 0 103 2 114 23 136 28 29 91 33 106 7z"/>
<path d="M5185 3398 c-3 -13 -4 -119 -3 -237 2 -161 6 -215 16 -219 9 -3 12
24 12 113 l0 116 57 -3 c55 -3 58 -4 63 -32 7 -41 30 -46 30 -6 0 23 8 38 30
57 33 27 38 43 15 43 -8 0 -15 -7 -15 -15 0 -12 -17 -15 -90 -15 l-90 0 -1 83
c-1 45 0 94 1 110 2 32 -17 36 -25 5z"/>
<path d="M5387 3404 c-10 -10 2 -24 19 -24 20 0 44 -24 44 -44 0 -20 17 -29
23 -12 3 8 -8 30 -25 50 -29 35 -47 43 -61 30z"/>
<path d="M5270 3370 c0 -6 7 -13 15 -16 22 -9 87 5 80 17 -8 12 -95 12 -95 -1z"/>
<path d="M5386 3341 c-3 -5 1 -14 8 -20 16 -13 32 2 21 19 -8 12 -22 13 -29 1z"/>
<path d="M5246 3313 c-3 -3 -6 -21 -6 -40 0 -23 5 -33 15 -33 10 0 15 10 15
34 0 34 -11 52 -24 39z"/>
<path d="M5304 3306 c-3 -8 -4 -27 -2 -43 4 -36 38 -43 68 -13 l22 22 -23 24
c-25 27 -57 32 -65 10z"/>
<path d="M5430 3265 c0 -15 4 -24 10 -20 6 3 10 12 10 20 0 8 -4 17 -10 20 -6
4 -10 -5 -10 -20z"/>
<path d="M5452 3209 c1 -12 9 -24 16 -27 9 -3 13 3 10 19 -1 12 -9 24 -16 27
-9 3 -13 -3 -10 -19z"/>
<path d="M5397 3143 c-4 -3 -7 -16 -7 -29 0 -12 -7 -24 -15 -28 -19 -7 -21
-70 -2 -64 6 3 14 18 15 34 2 16 10 33 18 37 8 4 14 19 14 32 0 24 -10 32 -23
18z"/>
<path d="M5270 3124 c0 -17 22 -14 28 4 2 7 -3 12 -12 12 -9 0 -16 -7 -16 -16z"/>
<path d="M5248 3079 c-2 -8 -2 -43 2 -79 l6 -65 8 62 c4 36 4 68 -2 78 -7 13
-10 14 -14 4z"/>
<path d="M5427 3074 c-11 -11 -8 -64 3 -64 6 0 13 7 17 16 7 18 -9 58 -20 48z"/>
<path d="M5394 2975 c-3 -14 -4 -28 -1 -31 10 -10 27 7 27 26 0 30 -19 33 -26
5z"/>
<path d="M5454 2967 c-8 -21 2 -35 16 -21 5 5 6 15 0 24 -8 12 -10 12 -16 -3z"/>
<path d="M5696 3403 c-11 -11 -6 -23 9 -23 8 0 15 4 15 9 0 13 -16 22 -24 14z"/>
<path d="M5966 3373 c-9 -9 -7 -33 3 -33 12 0 22 28 12 34 -5 3 -11 3 -15 -1z"/>
<path d="M5727 3363 c-12 -12 -7 -33 8 -33 17 0 19 9 7 28 -5 7 -11 9 -15 5z"/>
<path d="M6012 3331 c-20 -37 -20 -40 -3 -55 16 -14 17 -32 13 -176 -3 -115
-1 -160 7 -160 7 0 11 35 12 108 1 59 3 153 5 209 2 56 0 105 -5 108 -5 3 -18
-13 -29 -34z"/>
<path d="M5660 3329 c0 -31 15 -69 28 -69 4 0 13 4 20 9 11 6 9 16 -8 49 -26
50 -40 54 -40 11z"/>
<path d="M5935 3310 c-8 -13 4 -32 16 -25 12 8 12 35 0 35 -6 0 -13 -4 -16
-10z"/>
<path d="M5757 3304 c-8 -8 3 -34 14 -34 5 0 9 9 9 20 0 19 -11 26 -23 14z"/>
<path d="M5906 3263 c-12 -12 -6 -33 9 -33 8 0 15 6 15 14 0 17 -14 28 -24 19z"/>
<path d="M5967 3264 c-4 -4 -7 -16 -7 -26 0 -10 -7 -18 -15 -18 -9 0 -15 -9
-15 -21 0 -11 -6 -27 -14 -35 -8 -7 -16 -19 -18 -26 -7 -20 -34 -1 -52 36 -9
20 -21 36 -26 36 -6 0 -10 11 -10 25 0 16 -6 25 -15 25 -8 0 -15 -9 -15 -20 0
-11 7 -23 15 -26 8 -4 15 -17 15 -30 0 -15 6 -24 15 -24 8 0 15 -9 15 -19 0
-11 11 -32 24 -46 l24 -26 21 34 c12 19 21 42 21 51 0 9 7 16 15 16 8 0 15 7
15 15 0 9 7 27 16 41 11 16 14 28 7 35 -5 5 -12 6 -16 3z"/>
<path d="M5720 3247 c0 -7 7 -22 15 -33 8 -10 15 -27 15 -36 0 -10 7 -18 15
-18 9 0 15 -9 15 -25 0 -13 6 -28 14 -32 8 -4 15 -17 17 -27 5 -25 23 -23 27
4 2 13 -2 20 -12 20 -10 0 -16 9 -16 25 0 14 -7 28 -15 31 -8 4 -15 15 -15 25
0 11 -7 22 -15 25 -8 4 -15 17 -15 30 0 15 -6 24 -15 24 -8 0 -15 -6 -15 -13z"/>
<path d="M5877 3206 c-6 -15 1 -26 15 -26 4 0 8 9 8 20 0 23 -15 27 -23 6z"/>
<path d="M5684 3153 c3 -21 6 -55 6 -75 0 -21 5 -38 10 -38 6 0 10 32 10 75 0
63 -3 75 -16 75 -14 0 -15 -7 -10 -37z"/>
<path d="M6360 3403 c0 -13 5 -23 10 -23 13 0 13 11 0 30 -8 12 -10 11 -10 -7z"/>
<path d="M6387 3339 c-8 -29 2 -49 23 -49 25 0 33 16 26 46 -8 30 -41 32 -49
3z"/>
<path d="M6326 3333 c-4 -13 -3 -31 3 -40 9 -17 10 -17 17 0 3 10 2 28 -3 40
l-10 22 -7 -22z"/>
<path d="M6352 3244 c2 -20 9 -39 16 -42 10 -3 12 6 10 34 -2 20 -9 39 -16 42
-10 3 -12 -6 -10 -34z"/>
<path d="M6446 3263 c-3 -3 -6 -19 -6 -34 0 -15 -7 -29 -16 -33 -18 -7 -16
-67 4 -74 8 -2 12 9 12 36 0 26 5 42 15 46 8 3 15 16 15 30 0 25 -12 40 -24
29z"/>
<path d="M6296 3253 c-11 -11 -7 -41 8 -56 8 -8 16 -27 18 -42 2 -16 9 -30 16
-33 18 -6 16 57 -3 64 -8 4 -15 19 -15 34 0 29 -12 45 -24 33z"/>
<path d="M6476 3173 c-3 -3 -6 -19 -6 -34 0 -15 -7 -29 -15 -33 -8 -3 -15 -16
-15 -29 0 -13 -5 -28 -11 -34 -8 -8 -4 -16 14 -27 14 -10 27 -31 31 -49 5 -25
9 -29 16 -17 14 22 12 46 -5 60 -9 7 -15 29 -15 52 0 22 7 46 15 54 8 9 15 24
15 34 0 20 -13 33 -24 23z"/>
<path d="M6267 3163 c-4 -3 -7 -20 -7 -37 0 -17 -7 -40 -15 -50 -16 -22 -20
-66 -6 -66 5 0 12 11 15 24 3 13 14 26 23 28 15 4 17 14 15 56 -4 49 -10 61
-25 45z"/>
<path d="M6507 3084 c-10 -11 -8 -52 3 -59 13 -8 25 44 13 56 -5 5 -12 6 -16
3z"/>
<path d="M6333 3064 c-24 -10 -1 -34 34 -34 28 0 34 3 29 16 -3 9 -6 18 -6 20
0 5 -42 4 -57 -2z"/>
<path d="M6262 2976 c2 -15 8 -26 13 -26 15 0 12 43 -3 48 -10 3 -13 -4 -10
-22z"/>
<path d="M6537 2994 c-4 -4 -7 -18 -7 -31 0 -28 23 -27 28 1 4 20 -11 40 -21
30z"/>
<path d="M6204 2976 c-6 -17 2 -36 17 -36 12 0 12 37 -1 45 -6 3 -13 -1 -16
-9z"/>
<path d="M6723 3413 c-5 -10 -8 -83 -8 -163 2 -260 4 -310 16 -310 7 0 10 32
9 98 -3 146 -9 133 57 130 55 -3 58 -4 63 -32 7 -41 30 -46 30 -6 0 22 9 39
32 60 26 24 30 32 20 42 -10 10 -14 8 -19 -10 -5 -22 -9 -23 -96 -20 l-90 3 0
113 c1 61 0 112 -3 112 -2 0 -7 -8 -11 -17z"/>
<path d="M6915 3401 c-3 -6 10 -17 30 -27 25 -12 35 -23 35 -40 0 -28 16 -40
24 -18 3 9 -7 31 -26 55 -31 38 -51 48 -63 30z"/>
<path d="M6800 3371 c0 -6 5 -13 10 -16 15 -9 91 5 84 16 -7 12 -94 12 -94 0z"/>
<path d="M6916 3342 c-2 -4 -1 -14 4 -22 7 -11 12 -12 21 -3 6 6 8 16 5 22 -8
13 -23 14 -30 3z"/>
<path d="M6833 3313 c-7 -2 -13 -13 -13 -24 0 -10 -4 -19 -9 -19 -5 0 -8 7 -7
16 0 9 -5 19 -11 21 -9 3 -13 -7 -13 -32 0 -31 3 -36 19 -30 11 3 22 1 26 -5
11 -17 54 -11 76 11 l20 20 -23 24 c-22 24 -40 29 -65 18z"/>
<path d="M6960 3265 c0 -8 5 -15 10 -15 6 0 10 7 10 15 0 8 -4 15 -10 15 -5 0
-10 -7 -10 -15z"/>
<path d="M6984 3226 c-7 -20 2 -46 16 -46 13 0 13 47 0 55 -6 3 -13 -1 -16 -9z"/>
<path d="M6927 3143 c-4 -3 -7 -17 -7 -30 0 -33 24 -24 28 10 3 26 -7 35 -21
20z"/>
<path d="M6800 3124 c0 -17 22 -14 28 4 2 7 -3 12 -12 12 -9 0 -16 -7 -16 -16z"/>
<path d="M6894 3066 c-8 -20 -1 -47 11 -49 6 -1 11 13 13 31 3 32 -14 45 -24
18z"/>
<path d="M6957 3064 c-10 -11 -8 -52 3 -59 13 -8 25 44 13 56 -5 5 -12 6 -16
3z"/>
<path d="M6925 2969 c-4 -11 -4 -23 -2 -26 9 -8 27 7 27 22 0 23 -18 27 -25 4z"/>
<path d="M6984 2967 c-8 -21 2 -35 16 -21 5 5 6 15 0 24 -8 12 -10 12 -16 -3z"/>
<path d="M7260 3401 c0 -27 27 -34 40 -11 14 27 13 30 -15 30 -18 0 -25 -5
-25 -19z"/>
<path d="M7160 3371 c0 -6 5 -13 10 -16 15 -9 71 5 64 16 -7 12 -74 12 -74 0z"/>
<path d="M7360 3371 c0 -13 40 -24 71 -19 42 5 26 23 -23 26 -29 2 -48 -1 -48
-7z"/>
<path d="M7304 3303 c3 -21 6 -109 6 -195 0 -99 4 -158 10 -158 6 0 10 72 10
195 0 174 -2 195 -16 195 -14 0 -15 -7 -10 -37z"/>
<path d="M3263 3381 c-13 -11 -23 -24 -23 -29 0 -17 39 -1 45 18 3 10 14 21
23 23 14 4 13 5 -3 6 -11 0 -30 -8 -42 -18z"/>
<path d="M3401 2990 l-23 -20 26 0 c19 0 26 5 26 20 0 24 1 24 -29 0z"/>
<path d="M3716 3373 c-11 -11 -6 -23 9 -23 8 0 15 4 15 9 0 13 -16 22 -24 14z"/>
<path d="M3765 3343 c-19 -4 -20 -11 -19 -148 1 -149 4 -164 46 -186 20 -11
54 3 75 30 8 11 12 59 13 142 0 112 -2 127 -20 147 -20 21 -46 25 -95 15z"/>
<path d="M3694 3175 c0 -82 2 -115 3 -72 2 43 2 110 0 150 -1 40 -3 5 -3 -78z"/>
<path d="M3934 3180 c0 -74 1 -105 3 -67 2 37 2 97 0 135 -2 37 -3 6 -3 -68z"/>
<path d="M3885 2990 c-18 -19 -17 -20 3 -20 15 0 22 6 22 20 0 11 -2 20 -3 20
-2 0 -12 -9 -22 -20z"/>
<path d="M4712 3290 c0 -19 2 -27 5 -17 2 9 2 25 0 35 -3 9 -5 1 -5 -18z"/>
<path d="M4766 3293 c-12 -13 -6 -53 9 -53 9 0 15 9 15 24 0 26 -12 40 -24 29z"/>
<path d="M4735 3205 c-11 -49 -26 -84 -42 -97 -12 -10 -18 -9 -30 7 -15 20
-15 20 -11 0 3 -17 12 -20 51 -21 34 -1 52 -7 62 -20 13 -18 14 -18 20 -2 6
15 -7 70 -35 143 -7 18 -9 17 -15 -10z"/>
<path d="M4802 3200 c0 -19 2 -27 5 -17 2 9 2 25 0 35 -3 9 -5 1 -5 -18z"/>
<path d="M4832 3110 c0 -19 2 -27 5 -17 2 9 2 25 0 35 -3 9 -5 1 -5 -18z"/>
<path d="M4627 3043 c-10 -9 -9 -43 1 -43 16 0 52 32 47 41 -7 10 -38 12 -48
2z"/>
<path d="M3540 2670 c0 -22 0 -43 0 -47 0 -5 15 -8 33 -8 29 0 32 3 35 33 4
36 -17 61 -50 62 -14 0 -18 -8 -18 -40z"/>
<path d="M3395 2610 c-13 -15 -15 -24 -8 -31 19 -19 48 -6 51 24 4 33 -17 36
-43 7z"/>
<path d="M3792 2698 c-18 -18 -16 -175 2 -194 19 -19 25 -18 48 8 24 28 20 51
-12 58 -45 11 -30 35 25 40 l50 5 -21 20 c-11 11 -28 32 -37 48 -19 29 -36 34
-55 15z"/>
<path d="M4286 2694 c-3 -9 -6 -31 -6 -50 0 -33 2 -35 27 -32 38 4 53 46 27
76 -22 26 -40 28 -48 6z"/>
<path d="M4135 2648 c-9 -22 -2 -68 10 -71 14 -3 19 63 6 76 -7 7 -12 5 -16
-5z"/>
<path d="M4526 2694 c-13 -33 -5 -50 31 -69 20 -11 44 -33 53 -48 17 -28 18
-28 23 -5 7 31 -6 107 -16 91 -14 -23 -35 -14 -42 17 -7 33 -38 42 -49 14z"/>
<path d="M4685 2700 c-3 -6 -7 -49 -7 -96 -1 -64 3 -89 14 -100 14 -14 18 -14
37 2 18 16 21 29 21 95 0 61 -4 79 -18 92 -21 19 -38 22 -47 7z"/>
<path d="M5157 2703 c-4 -3 -7 -26 -7 -50 0 -39 2 -43 24 -43 38 0 50 54 18
83 -20 19 -26 20 -35 10z"/>
<path d="M5005 2637 c-8 -31 -4 -57 10 -60 14 -3 19 63 6 76 -7 7 -12 2 -16
-16z"/>
</g>
</svg>
